<?xml version="1.0" encoding="utf-8"?>
<!-- Generator: Adobe Illustrator 25.2.0, SVG Export Plug-In . SVG Version: 6.00 Build 0)  -->
<svg version="1.1" id="Layer_1" xmlns="http://www.w3.org/2000/svg" xmlns:xlink="http://www.w3.org/1999/xlink" x="0px" y="0px"
	 viewBox="0 0 16 24" style="enable-background:new 0 0 16 24;" xml:space="preserve">
<style type="text/css">
	.st0{fill:#AD895F;stroke:#8B5E3C;stroke-width:0.5;stroke-miterlimit:10;}
	.st1{fill:#8B5E3C;}
</style>
<path class="st0" d="M14.91,13.86c0.89,5.34-3.08,9.79-6.89,9.79s-7.83-4.47-6.89-9.79C2.1,8.35,4.22,0.6,8.02,0.6
	S14.01,8.46,14.91,13.86z"/>
<g>
	<g>
		<path class="st1" d="M7.86,1.84c-0.27,2.7-0.29,5.42-0.29,8.14c0,2.74,0.01,5.48,0.01,8.22c0,1.53-0.05,3.07,0.1,4.59
			c0.02,0.16,0.27,0.16,0.25,0c-0.13-1.36-0.1-2.73-0.1-4.09c0-1.37,0-2.74-0.01-4.11c0-2.73-0.04-5.46,0.02-8.19
			c0.03-1.52,0.11-3.04,0.26-4.56C8.12,1.68,7.87,1.68,7.86,1.84L7.86,1.84z"/>
	</g>
</g>
<g>
	<g>
		<path class="st1" d="M8.85,2.09c-0.23,2.6,0.09,5.21,0.2,7.8c0.11,2.61,0.13,5.21,0.11,7.82c-0.01,1.47-0.03,2.94-0.06,4.41
			c0,0.16,0.25,0.16,0.25,0c0.04-2.61,0.08-5.22,0.06-7.82C9.4,13,9.38,11.69,9.33,10.39c-0.05-1.3-0.14-2.6-0.21-3.9
			C9.03,5.02,8.97,3.55,9.1,2.09C9.12,1.93,8.87,1.93,8.85,2.09L8.85,2.09z"/>
	</g>
</g>
<g>
	<g>
		<path class="st1" d="M9.89,2.85c-0.07,2.39-0.13,4.77-0.07,7.16c0.03,1.19,0.09,2.38,0.2,3.57c0.11,1.18,0.28,2.34,0.43,3.51
			c0.17,1.32,0.28,2.66,0.13,3.99c-0.02,0.16,0.23,0.16,0.25,0c0.28-2.37-0.28-4.73-0.52-7.08c-0.24-2.36-0.28-4.74-0.26-7.12
			c0.01-1.35,0.05-2.7,0.09-4.04C10.14,2.69,9.89,2.69,9.89,2.85L9.89,2.85z"/>
	</g>
</g>
<g>
	<g>
		<path class="st1" d="M11.2,4.58c-0.04,2.05-0.08,4.09-0.03,6.14c0.04,2.02,0.19,4.04,0.42,6.05c0.13,1.13,0.27,2.25,0.42,3.38
			c0.02,0.16,0.27,0.16,0.25,0c-0.26-2.03-0.52-4.05-0.68-6.09c-0.15-2.02-0.19-4.05-0.17-6.07c0.01-1.14,0.03-2.27,0.05-3.41
			C11.45,4.42,11.2,4.42,11.2,4.58L11.2,4.58z"/>
	</g>
</g>
<g>
	<g>
		<path class="st1" d="M12.35,7.94c0.07,1.39,0,2.77-0.01,4.16c-0.01,1.37,0.06,2.72,0.3,4.07c0.14,0.77,0.3,1.53,0.43,2.29
			c0.03,0.16,0.27,0.09,0.24-0.07c-0.21-1.35-0.55-2.67-0.66-4.04c-0.1-1.36-0.05-2.73-0.03-4.09c0.01-0.77,0.02-1.55-0.02-2.32
			C12.59,7.78,12.34,7.78,12.35,7.94L12.35,7.94z"/>
	</g>
</g>
<g>
	<g>
		<path class="st1" d="M13.25,10.5c0.28,2.23,0.47,4.47,0.57,6.71c0.01,0.16,0.26,0.16,0.25,0c-0.1-2.24-0.29-4.48-0.57-6.71
			C13.48,10.34,13.23,10.34,13.25,10.5L13.25,10.5z"/>
	</g>
</g>
<g>
	<g>
		<path class="st1" d="M6.74,1.95C6.56,4.54,6.42,7.13,6.31,9.72c-0.11,2.6-0.19,5.21-0.23,7.81c-0.02,1.46-0.04,2.93-0.04,4.39
			c0,0.16,0.25,0.16,0.25,0c0.01-2.59,0.04-5.19,0.12-7.78c0.07-2.6,0.18-5.21,0.32-7.81C6.8,4.87,6.89,3.41,6.99,1.95
			C7,1.79,6.75,1.79,6.74,1.95L6.74,1.95z"/>
	</g>
</g>
<g>
	<g>
		<path class="st1" d="M5.58,3.01C5.41,5.4,5.34,7.8,5.29,10.19c-0.05,2.4-0.1,4.79-0.22,7.18c-0.07,1.35-0.17,2.71-0.31,4.06
			c-0.02,0.16,0.23,0.16,0.25,0c0.25-2.38,0.36-4.78,0.43-7.17c0.07-2.4,0.1-4.79,0.18-7.19c0.05-1.36,0.11-2.71,0.21-4.07
			C5.84,2.85,5.59,2.85,5.58,3.01L5.58,3.01z"/>
	</g>
</g>
<g>
	<g>
		<path class="st1" d="M4.34,4.85C3.81,8.7,4.37,12.59,3.9,16.44c-0.13,1.07-0.35,2.13-0.68,3.15c-0.05,0.15,0.19,0.22,0.24,0.07
			c1.19-3.67,0.82-7.56,0.89-11.35c0.02-1.13,0.08-2.26,0.24-3.39C4.61,4.76,4.37,4.69,4.34,4.85L4.34,4.85z"/>
	</g>
</g>
<g>
	<g>
		<path class="st1" d="M2.97,8.38C2.76,10.77,3,13.17,2.8,15.57c-0.05,0.68-0.15,1.36-0.29,2.03c-0.03,0.16,0.21,0.22,0.24,0.07
			c0.52-2.37,0.35-4.81,0.37-7.22c0.01-0.69,0.03-1.38,0.09-2.07C3.23,8.22,2.98,8.22,2.97,8.38L2.97,8.38z"/>
	</g>
</g>
<g>
	<g>
		<path class="st1" d="M1.98,12.82c0.01,1.01-0.05,2.01-0.21,3.01c-0.02,0.16,0.22,0.23,0.24,0.07c0.15-1.02,0.23-2.05,0.21-3.08
			C2.23,12.66,1.98,12.65,1.98,12.82L1.98,12.82z"/>
	</g>
</g>
</svg>
